<svg xmlns="http://www.w3.org/2000/svg" width="800" height="500" viewBox="0 0 800 500">
  <defs>
    <linearGradient id="g" x1="0%" y1="0%" x2="100%" y2="100%">
      <stop offset="0%" style="stop-color:#1a0533"/>
      <stop offset="100%" style="stop-color:#0d1f3c"/>
    </linearGradient>
  </defs>
  <rect width="800" height="500" fill="url(#g)"/>
  <rect x="0" y="340" width="800" height="160" fill="#0a1628" opacity="0.6"/>
  <ellipse cx="120" cy="310" rx="110" ry="65" fill="#0d2a1a" opacity="0.5"/>
  <ellipse cx="300" cy="290" rx="140" ry="80" fill="#0f3020" opacity="0.5"/>
  <ellipse cx="500" cy="300" rx="120" ry="70" fill="#0d2a1a" opacity="0.4"/>
  <ellipse cx="700" cy="295" rx="130" ry="75" fill="#0f3020" opacity="0.4"/>
  <path d="M0 380 Q200 320 400 350 Q600 380 800 340 L800 500 L0 500 Z" fill="#00C8D4" opacity="0.08"/>
  <path d="M0 420 Q200 380 400 400 Q600 420 800 390 L800 500 L0 500 Z" fill="#FF0096" opacity="0.06"/>
  <text x="400" y="220" text-anchor="middle" font-family="sans-serif" font-size="22" font-weight="600" fill="#00C8D4" opacity="0.9">Hoteles de Venezuela</text>
  <text x="400" y="255" text-anchor="middle" font-family="sans-serif" font-size="13" fill="#ffffff" opacity="0.45">Imagen no disponible</text>
</svg>
